<svg width="25" height="24" viewBox="0 0 25 24" fill="none" xmlns="http://www.w3.org/2000/svg">
<path d="M20.0234 11.3023H7.08062L10.1689 8.19101C10.4395 7.91863 10.4395 7.47676 10.1689 7.20441C9.89839 6.93186 9.45976 6.93186 9.1896 7.20441L4.91892 11.5066C4.64836 11.779 4.64836 12.2209 4.91892 12.4932L9.1896 16.7956C9.32484 16.9319 9.50208 17 9.67927 17C9.85647 17 10.0337 16.9319 10.1689 16.7956C10.4395 16.5232 10.4395 16.0814 10.1689 15.8091L7.08062 12.6976H20.0234C20.4058 12.6976 20.716 12.3852 20.716 11.9999C20.716 11.6146 20.4059 11.3023 20.0234 11.3023Z" fill="white"/>
</svg>
