<svg width="25" height="24" viewBox="0 0 25 24" fill="none" xmlns="http://www.w3.org/2000/svg">
<path fill-rule="evenodd" clip-rule="evenodd" d="M18.9287 4.09527C19.1691 4.1869 19.3606 4.33136 19.5029 4.52889C19.6449 4.72631 19.716 4.94477 19.716 5.18452V18.8156C19.716 19.0554 19.645 19.2738 19.5029 19.4712C19.3606 19.6688 19.1691 19.8134 18.9286 19.9049C18.7901 19.9613 18.6296 19.9893 18.4473 19.9893C18.0974 19.9893 17.7948 19.8765 17.5395 19.6513L12.716 15.1671L7.89254 19.6512C7.62997 19.8836 7.32752 20 6.98469 20C6.81701 20 6.65653 19.9683 6.50352 19.905C6.26294 19.8134 6.07147 19.6688 5.92931 19.4714C5.78718 19.2738 5.716 19.0555 5.716 18.8156V5.18438C5.716 4.94462 5.78718 4.72616 5.92931 4.52874C6.07147 4.33132 6.26294 4.18668 6.50352 4.09512C6.65668 4.03174 6.81701 4 6.98469 4H18.4473V4.00015C18.6151 4.00015 18.7756 4.03189 18.9287 4.09527ZM13.6895 14.1942L18.3161 18.4876V5.35377H7.11615V18.4876L11.7427 14.1942L12.7161 13.2954L13.6895 14.1942Z" fill="black"/>
</svg>
