<svg width="10" height="10" viewBox="0 0 10 10" fill="none" xmlns="http://www.w3.org/2000/svg">
<path fill-rule="evenodd" clip-rule="evenodd" d="M0 5C0 2.3213 2.1793 0.141998 4.858 0.141998C7.5367 0.141998 9.716 2.3213 9.716 5C9.716 7.6787 7.5367 9.858 4.858 9.858C2.1793 9.858 0 7.6787 0 5ZM1.0336 5C1.0336 7.1088 2.7493 8.8243 4.858 8.8243C6.9667 8.8243 8.6824 7.1088 8.6824 5C8.6824 2.8912 6.9667 1.1757 4.858 1.1757C2.7493 1.1757 1.0336 2.8912 1.0336 5Z" fill="black"/>
<path d="M6.64531 5.51455H4.70939V3.45572C4.70939 3.28247 4.55057 3.142 4.35469 3.142C4.15881 3.142 4 3.28247 4 3.45572V5.82827C4 6.00153 4.15881 6.142 4.35469 6.142H6.64531C6.84119 6.142 7 6.00153 7 5.82827C7 5.65502 6.84119 5.51455 6.64531 5.51455Z" fill="black"/>
</svg>
