<svg width="25" height="24" viewBox="0 0 25 24" fill="none" xmlns="http://www.w3.org/2000/svg">
<path fill-rule="evenodd" clip-rule="evenodd" d="M4.71604 14C3.61323 14 2.716 13.1029 2.716 12C2.716 10.8972 3.61323 10 4.71604 10C5.81885 10 6.716 10.8972 6.716 12C6.716 13.1029 5.81885 14 4.71604 14ZM12.716 14C11.6132 14 10.716 13.1029 10.716 12C10.716 10.8972 11.6132 10 12.716 10C13.8189 10 14.716 10.8972 14.716 12C14.716 13.1029 13.8189 14 12.716 14ZM18.716 12C18.716 13.1029 19.6132 14 20.716 14C21.8189 14 22.716 13.1029 22.716 12C22.716 10.8972 21.8189 10 20.716 10C19.6132 10 18.716 10.8972 18.716 12Z" fill="white"/>
</svg>
