<svg width="25" height="24" viewBox="0 0 25 24" fill="none" xmlns="http://www.w3.org/2000/svg">
<rect opacity="0.01" x="0.716003" width="24" height="24" fill="#D8D8D8"/>
<path fill-rule="evenodd" clip-rule="evenodd" d="M19.8162 2.11908C20.091 2.23363 20.3099 2.41419 20.4724 2.66111C20.6347 2.90789 20.716 3.18096 20.716 3.48065V20.5195C20.716 20.8192 20.6348 21.0923 20.4724 21.3389C20.3098 21.586 20.0909 21.7667 19.8162 21.8811C19.6578 21.9517 19.4744 21.9867 19.266 21.9867C18.8662 21.9867 18.5203 21.8456 18.2286 21.5641L12.716 15.9589L7.20347 21.564C6.90339 21.8545 6.55773 22 6.16593 22C5.97429 22 5.79089 21.9604 5.61603 21.8812C5.34108 21.7668 5.12226 21.586 4.95978 21.3393C4.79735 21.0923 4.716 20.8193 4.716 20.5195V3.48047C4.716 3.18077 4.79735 2.9077 4.95978 2.66092C5.12226 2.41415 5.34108 2.23335 5.61603 2.1189C5.79107 2.03968 5.97429 2 6.16593 2H19.2661V2.00019C19.4578 2.00019 19.6412 2.03986 19.8162 2.11908ZM13.8286 14.7427L19.1161 20.1095V3.6922H6.31616V20.1095L11.6036 14.7427L12.7161 13.6193L13.8286 14.7427Z" fill="#BCBCCD"/>
</svg>
