<svg width="25" height="24" viewBox="0 0 25 24" fill="none" xmlns="http://www.w3.org/2000/svg">
<rect opacity="0.01" x="0.716003" width="24" height="24" fill="#D8D8D8"/>
<path fill-rule="evenodd" clip-rule="evenodd" d="M5.716 3.87501L5.716 20.125C5.716 21.1589 6.50101 22 7.46597 22H10.3826C10.7051 22 10.966 21.7205 10.966 21.375C10.966 20.3411 11.751 19.5 12.716 19.5C13.681 19.5 14.466 20.3411 14.466 21.375C14.466 21.7205 14.7269 22 15.0493 22H17.966C18.931 22 19.716 21.1589 19.716 20.125V3.87501C19.716 2.84108 18.931 2 17.966 2L15.0493 2C14.7269 2 14.466 2.27953 14.466 2.625C14.466 3.65893 13.681 4.50001 12.716 4.50001C11.751 4.50001 10.966 3.65893 10.966 2.625C10.966 2.27953 10.7051 2 10.3827 2L7.46601 2C6.50101 2 5.716 2.84108 5.716 3.87501ZM7.56147 3.25H9.90999C10.1762 4.67455 11.3328 5.75001 12.716 5.75001C14.0992 5.75001 15.2558 4.67455 15.522 3.25H17.8706C18.1866 3.25 18.4433 3.53016 18.4433 3.875L18.4433 20.125C18.4433 20.4698 18.1866 20.75 17.8706 20.75H15.5221C15.2558 19.3254 14.0992 18.25 12.716 18.25C11.3328 18.25 10.1762 19.3254 9.90999 20.75H7.56147C7.24547 20.75 6.98874 20.4698 6.98874 20.125L6.98874 3.875C6.98874 3.53016 7.24547 3.25 7.56147 3.25Z" fill="#BCBCCD"/>
<path d="M7.46597 22L7.46596 22.308H7.46597V22ZM14.466 2.625L14.774 2.625L14.774 2.62497L14.466 2.625ZM9.90999 3.25L10.2128 3.19342L10.1658 2.942H9.90999V3.25ZM15.522 3.25V2.942H15.2663L15.2193 3.19342L15.522 3.25ZM15.5221 20.75L15.2193 20.8066L15.2663 21.058H15.5221V20.75ZM9.90999 20.75V21.058H10.1658L10.2128 20.8066L9.90999 20.75ZM6.024 20.125L6.024 3.87501H5.408L5.408 20.125H6.024ZM7.46598 21.692C6.69078 21.692 6.024 21.0092 6.024 20.125H5.408C5.408 21.3087 6.31124 22.3079 7.46596 22.308L7.46598 21.692ZM10.3826 21.692H7.46597V22.308H10.3826V21.692ZM10.658 21.375C10.658 21.5707 10.5153 21.692 10.3826 21.692V22.308C10.8949 22.308 11.274 21.8702 11.274 21.375H10.658ZM12.716 19.192C11.5612 19.192 10.658 20.1913 10.658 21.375H11.274C11.274 20.4908 11.9408 19.808 12.716 19.808V19.192ZM14.774 21.375C14.774 20.1913 13.8708 19.192 12.716 19.192V19.808C13.4912 19.808 14.158 20.4908 14.158 21.375H14.774ZM15.0493 21.692C14.9167 21.692 14.774 21.5707 14.774 21.375H14.158C14.158 21.8702 14.5371 22.308 15.0493 22.308V21.692ZM17.966 21.692H15.0493V22.308H17.966V21.692ZM19.408 20.125C19.408 21.0092 18.7412 21.692 17.966 21.692V22.308C19.1208 22.308 20.024 21.3087 20.024 20.125H19.408ZM19.408 3.87501V20.125H20.024V3.87501H19.408ZM17.966 2.308C18.7412 2.308 19.408 2.99082 19.408 3.87501H20.024C20.024 2.69134 19.1208 1.692 17.966 1.692V2.308ZM15.0493 2.308L17.966 2.308V1.692L15.0493 1.692V2.308ZM14.774 2.62497C14.774 2.42927 14.9167 2.308 15.0493 2.308V1.692C14.5371 1.692 14.158 2.12979 14.158 2.62504L14.774 2.62497ZM12.716 4.80801C13.8708 4.80801 14.774 3.80867 14.774 2.625H14.158C14.158 3.50919 13.4912 4.19201 12.716 4.19201V4.80801ZM10.658 2.625C10.658 3.80867 11.5613 4.80801 12.716 4.80801V4.19201C11.9408 4.19201 11.274 3.50919 11.274 2.625H10.658ZM10.3827 2.308C10.5153 2.308 10.658 2.42928 10.658 2.625H11.274C11.274 2.12979 10.8949 1.692 10.3827 1.692V2.308ZM7.46601 2.308L10.3827 2.308V1.692L7.46601 1.692V2.308ZM6.024 3.87501C6.024 2.99082 6.69078 2.308 7.46601 2.308V1.692C6.31124 1.692 5.408 2.69134 5.408 3.87501H6.024ZM9.90999 2.942L7.56147 2.942V3.558H9.90999V2.942ZM12.716 5.44201C11.5025 5.44201 10.4559 4.49428 10.2128 3.19342L9.60723 3.30658C9.89657 4.85482 11.1632 6.05801 12.716 6.05801V5.44201ZM15.2193 3.19342C14.9762 4.49428 13.9295 5.44201 12.716 5.44201V6.05801C14.2688 6.05801 15.5355 4.85482 15.8248 3.30658L15.2193 3.19342ZM17.8706 2.942H15.522V3.558H17.8706V2.942ZM18.7513 3.875C18.7513 3.38594 18.3814 2.942 17.8706 2.942V3.558C17.9917 3.558 18.1353 3.67439 18.1353 3.875H18.7513ZM18.7513 20.125L18.7513 3.875H18.1353L18.1353 20.125H18.7513ZM17.8706 21.058C18.3814 21.058 18.7513 20.6141 18.7513 20.125H18.1353C18.1353 20.3256 17.9917 20.442 17.8706 20.442V21.058ZM15.5221 21.058H17.8706V20.442H15.5221V21.058ZM12.716 18.558C13.9296 18.558 14.9762 19.5057 15.2193 20.8066L15.8248 20.6934C15.5355 19.1451 14.2689 17.942 12.716 17.942V18.558ZM10.2128 20.8066C10.4559 19.5057 11.5025 18.558 12.716 18.558V17.942C11.1632 17.942 9.89657 19.1452 9.60723 20.6934L10.2128 20.8066ZM7.56147 21.058H9.90999V20.442H7.56147V21.058ZM6.68074 20.125C6.68074 20.6141 7.05059 21.058 7.56147 21.058V20.442C7.44034 20.442 7.29674 20.3256 7.29674 20.125H6.68074ZM6.68074 3.875L6.68074 20.125H7.29674L7.29674 3.875H6.68074ZM7.56147 2.942C7.05059 2.942 6.68074 3.38594 6.68074 3.875H7.29674C7.29674 3.67439 7.44034 3.558 7.56147 3.558V2.942Z" fill="#BCBCCD"/>
</svg>
