<svg width="25" height="24" viewBox="0 0 25 24" fill="none" xmlns="http://www.w3.org/2000/svg">
<rect opacity="0.01" x="0.716003" width="24" height="24" fill="#D8D8D8"/>
<path d="M22.836 11.56C22.836 5.7373 18.0987 1 12.276 1C6.45327 1 1.716 5.7373 1.716 11.56C1.716 17.3827 6.45331 22.12 12.276 22.12H21.516V20.8H17.377C20.6282 18.9979 22.836 15.5331 22.836 11.56Z" fill="#110E47" stroke="#110E47" stroke-width="0.66"/>
<path d="M3.03601 11.56C3.03601 6.46502 7.18099 2.32001 12.276 2.32001C17.3711 2.32001 21.516 6.46498 21.516 11.56C21.516 16.655 17.371 20.8 12.276 20.8C7.18103 20.8 3.03601 16.655 3.03601 11.56Z" fill="#DBE3FF" stroke="black" stroke-width="0.66"/>
<path fill-rule="evenodd" clip-rule="evenodd" d="M14.388 7.336C14.388 8.50061 13.4406 9.448 12.276 9.448C11.1113 9.448 10.164 8.50061 10.164 7.336C10.164 6.17139 11.1114 5.224 12.276 5.224C13.4406 5.224 14.388 6.17139 14.388 7.336ZM12.98 7.33602C12.98 6.94759 12.6644 6.63202 12.276 6.63202C11.8875 6.63202 11.572 6.94759 11.572 7.33602C11.572 7.72445 11.8876 8.04002 12.276 8.04002C12.6644 8.04002 12.98 7.72445 12.98 7.33602Z" fill="#110E47"/>
<path fill-rule="evenodd" clip-rule="evenodd" d="M8.70513 7.86155C9.81198 8.22182 10.4197 9.41597 10.0609 10.5228C9.77075 11.4145 8.94023 11.9824 8.04997 11.9824C7.83411 11.9824 7.61545 11.9494 7.39959 11.8793C6.29202 11.519 5.68426 10.3256 6.04313 9.218C6.4034 8.11044 7.59829 7.50269 8.70446 7.86155H8.70513ZM8.05268 9.16644C7.75571 9.16644 7.47862 9.3555 7.38238 9.65318C7.26276 10.0216 7.46555 10.4204 7.83474 10.5401C8.20051 10.6597 8.602 10.4576 8.72162 10.0877C8.84125 9.71918 8.63845 9.32112 8.26994 9.20082C8.19776 9.17744 8.12486 9.16644 8.05268 9.16644Z" fill="#110E47"/>
<path fill-rule="evenodd" clip-rule="evenodd" d="M8.03378 13.6964C8.71859 12.7557 10.0423 12.5453 10.9842 13.2288C11.9255 13.9136 12.1353 15.2373 11.4519 16.1793C11.1197 16.6366 10.6302 16.9364 10.0725 17.0244C9.96114 17.0423 9.84907 17.0512 9.73768 17.0512C9.29552 17.0512 8.86576 16.9123 8.50067 16.6469C8.04409 16.3155 7.74429 15.8259 7.65629 15.2683C7.5676 14.7113 7.70167 14.153 8.03378 13.6964ZM9.85244 15.634C10.0381 15.6045 10.2017 15.5041 10.3124 15.3521C10.5401 15.0379 10.4706 14.5964 10.1564 14.3682C10.0319 14.2782 9.88683 14.2341 9.74312 14.2341C9.52516 14.2341 9.31061 14.3352 9.17241 14.5243C9.06241 14.6762 9.01771 14.8626 9.04659 15.0482C9.07615 15.2339 9.17655 15.3975 9.3285 15.5082C9.48045 15.6182 9.66818 15.6595 9.85244 15.634Z" fill="#110E47"/>
<path fill-rule="evenodd" clip-rule="evenodd" d="M13.1002 16.1794C12.4167 15.2376 12.6265 13.914 13.5678 13.23C14.5098 12.5452 15.8347 12.7549 16.5182 13.6968C16.8503 14.1533 16.9844 14.7116 16.8957 15.2685C16.8077 15.8261 16.5079 16.3156 16.0514 16.647C15.6869 16.9123 15.2565 17.0512 14.8144 17.0512C14.703 17.0512 14.5909 17.0423 14.4795 17.0244C13.9219 16.9364 13.4323 16.6366 13.1009 16.1801L13.1002 16.1794ZM14.6995 15.6342C14.8852 15.661 15.0708 15.6191 15.2235 15.5084C15.3755 15.3977 15.4758 15.2341 15.5054 15.0484C15.5343 14.8628 15.4896 14.6765 15.3796 14.5246C15.1513 14.2104 14.7078 14.1403 14.3956 14.3692C14.0821 14.5968 14.0119 15.0382 14.2395 15.3524C14.3503 15.5043 14.5139 15.6047 14.6995 15.6342Z" fill="#110E47"/>
<path fill-rule="evenodd" clip-rule="evenodd" d="M14.4911 10.5235C14.1323 9.41598 14.74 8.22181 15.8469 7.86155C16.9538 7.50267 18.1486 8.11043 18.5089 9.21728C18.8677 10.3255 18.26 11.519 17.1531 11.8793H17.1525C16.9366 11.9494 16.7179 11.9824 16.5021 11.9824C15.6118 11.9824 14.7813 11.4145 14.4911 10.5235ZM15.8304 10.0883C15.95 10.4575 16.3474 10.6603 16.7179 10.54C17.0864 10.4197 17.2892 10.0216 17.1696 9.65243C17.0734 9.35542 16.7963 9.16637 16.4993 9.16637C16.4271 9.16637 16.3542 9.17736 16.2821 9.20074C15.9136 9.32104 15.7108 9.71911 15.8304 10.0883Z" fill="#110E47"/>
<path d="M13.172 10.6639C13.6669 11.1588 13.6669 11.9611 13.172 12.456C12.6772 12.9509 11.8748 12.9509 11.38 12.456C10.8851 11.9611 10.8851 11.1588 11.38 10.6639C11.8748 10.1691 12.6772 10.1691 13.172 10.6639Z" fill="#110E47"/>
</svg>
